<svg width="71" height="71" viewBox="0 0 71 71" fill="none" xmlns="http://www.w3.org/2000/svg">
<path d="M51.8217 37.1433C51.7939 32.4146 53.9364 28.8507 58.263 26.2229C55.8432 22.7561 52.1822 20.8493 47.3564 20.4818C42.7872 20.1213 37.7881 23.1443 35.9576 23.1443C34.0231 23.1443 29.5995 20.6066 26.1188 20.6066C18.9356 20.7176 11.3018 26.3338 11.3018 37.7603C11.3018 41.137 11.9188 44.6246 13.153 48.2162C14.8032 52.9449 20.7522 64.531 26.9578 64.3438C30.2027 64.2675 32.4978 62.0418 36.7203 62.0418C40.8181 62.0418 42.9397 64.3438 46.5591 64.3438C52.8201 64.2536 58.2006 53.7215 59.7676 48.9789C51.371 45.0198 51.8217 37.3859 51.8217 37.1433ZM51.0867 55.656C50.0952 57.0357 49.0968 58.1243 48.1815 58.8246C47.4535 59.3793 46.8919 59.615 46.5175 59.6289C45.8935 59.622 45.2902 59.4694 44.1115 59.0187C44.0283 58.9841 43.9382 58.9494 43.8203 58.9078L43.5152 58.7899C42.3088 58.3254 41.5877 58.0758 40.6655 57.8331C39.3759 57.5003 38.0932 57.32 36.7203 57.32C35.3197 57.32 34.0023 57.4934 32.6919 57.8192C31.7281 58.0619 30.9169 58.3323 29.7312 58.7761C29.6827 58.7969 29.1696 58.991 29.024 59.0465C28.7813 59.1366 28.5941 59.206 28.4208 59.2684C27.6997 59.518 27.2421 59.622 26.833 59.6289C26.7845 59.6289 26.7429 59.622 26.7082 59.615C26.6319 59.6012 26.5349 59.5734 26.4239 59.5249C26.1119 59.4001 25.7375 59.1713 25.3146 58.8454C24.3438 58.0896 23.2761 56.904 22.1875 55.3855C20.2808 52.7092 18.478 49.1592 17.6113 46.67C16.5436 43.5638 16.0166 40.5893 16.0166 37.7534C16.0166 33.5794 17.2508 30.4038 19.3725 28.2475C21.196 26.4031 23.6505 25.37 26.1535 25.3146C26.5626 25.3215 27.1589 25.4186 27.9146 25.6266C28.5109 25.786 29.1627 26.001 30.0433 26.313C30.3067 26.4101 31.215 26.7359 31.326 26.7775C31.8599 26.9717 32.262 27.1104 32.6572 27.2352C33.9191 27.6373 34.8968 27.8592 35.9576 27.8592C37.0323 27.8592 37.9545 27.6304 39.2649 27.1797C39.7572 27.0133 41.5461 26.3477 41.865 26.2367C43.64 25.6058 44.9505 25.266 46.0807 25.1828C46.4135 25.1551 46.7116 25.1551 46.9959 25.1759C48.5698 25.3007 49.9149 25.6127 51.059 26.1327C48.452 29.1419 47.1068 32.8236 47.1138 37.1155C47.093 38.1348 47.1762 39.3135 47.4674 40.7071C47.9111 42.8219 48.757 44.9158 50.0952 46.878C51.1145 48.3687 52.3764 49.7139 53.8879 50.8856C53.0905 52.5289 52.1129 54.2276 51.0867 55.656ZM44.5345 15.9958C48.0498 11.8218 47.7309 8.02217 47.6269 6.65625C44.5206 6.83652 40.929 8.771 38.8836 11.1492C36.6302 13.7008 35.3059 16.8556 35.5901 20.4125C38.946 20.669 42.0106 18.9426 44.5345 15.9958Z" fill="#C68457"/>
</svg>
