<svg width="61" height="55" viewBox="0 0 61 55" fill="none" xmlns="http://www.w3.org/2000/svg">
<path d="M19.1967 34.4339H2.30575V30.2472H19.1328C20.5817 30.2472 21.7802 30.0075 22.7283 29.5281C23.6765 29.038 24.3796 28.3668 24.8377 27.5146C25.2958 26.6516 25.5249 25.6609 25.5249 24.5423C25.5249 23.4343 25.2958 22.4435 24.8377 21.57C24.3796 20.6964 23.6818 20.0092 22.7443 19.5085C21.8068 18.9972 20.6243 18.7415 19.1967 18.7415H12.2294V47.25H7.30753V14.5227H19.1967C21.679 14.5227 23.7511 14.9702 25.413 15.8651C27.0856 16.7599 28.3374 17.9638 29.1683 19.4766C30.0099 20.9893 30.4308 22.6726 30.4308 24.5263C30.4308 26.4013 30.0046 28.0898 29.1523 29.592C28.3107 31.0835 27.0536 32.266 25.381 33.1396C23.7191 34.0025 21.6577 34.4339 19.1967 34.4339ZM19.4364 37.1825V41.3853H2.30575V37.1825H19.4364Z" fill="#C68457"/>
<path d="M34.9518 39.4991C34.192 38.6973 32.9261 38.6632 32.1244 39.423C31.3226 40.1827 31.2885 41.4486 32.0482 42.2504L34.9518 39.4991ZM42.4147 50.2828L40.963 51.6584C41.3407 52.057 41.8656 52.2828 42.4147 52.2828C42.9638 52.2828 43.4888 52.057 43.8665 51.6584L42.4147 50.2828ZM59.9518 34.683C60.7115 33.8812 60.6774 32.6154 59.8756 31.8556C59.0739 31.0959 57.808 31.1299 57.0482 31.9317L59.9518 34.683ZM32.0482 42.2504L40.963 51.6584L43.8665 48.9071L34.9518 39.4991L32.0482 42.2504ZM43.8665 51.6584L59.9518 34.683L57.0482 31.9317L40.963 48.9071L43.8665 51.6584Z" fill="#C68457"/>
</svg>
