<svg width="65" height="64" viewBox="0 0 65 64" fill="none" xmlns="http://www.w3.org/2000/svg">
<path d="M8.5 32H32.5V36H8.5V32ZM4.5 22H24.5V26H4.5V22Z" fill="#C68457"/>
<path d="M60.3381 33.212L54.3381 19.212C54.1841 18.8522 53.9278 18.5455 53.6011 18.33C53.2743 18.1145 52.8915 17.9998 52.5001 18H46.5001V14C46.5001 13.4696 46.2893 12.9609 45.9143 12.5858C45.5392 12.2107 45.0305 12 44.5001 12H12.5001V16H42.5001V41.112C41.5887 41.6412 40.7912 42.3456 40.1534 43.1845C39.5156 44.0234 39.0502 44.9803 38.7841 46H26.2161C25.7293 44.1147 24.5716 42.4716 22.96 41.3788C21.3485 40.286 19.3937 39.8184 17.4621 40.0638C15.5304 40.3091 13.7546 41.2505 12.4674 42.7115C11.1802 44.1726 10.4701 46.0529 10.4701 48C10.4701 49.9471 11.1802 51.8274 12.4674 53.2885C13.7546 54.7495 15.5304 55.6909 17.4621 55.9362C19.3937 56.1816 21.3485 55.714 22.96 54.6212C24.5716 53.5284 25.7293 51.8853 26.2161 50H38.7841C39.2191 51.7165 40.2141 53.2389 41.6116 54.3263C43.0091 55.4138 44.7293 56.0043 46.5001 56.0043C48.2708 56.0043 49.991 55.4138 51.3885 54.3263C52.786 53.2389 53.781 51.7165 54.2161 50H58.5001C59.0305 50 59.5392 49.7893 59.9143 49.4142C60.2893 49.0391 60.5001 48.5304 60.5001 48V34C60.5002 33.7291 60.445 33.4609 60.3381 33.212ZM18.5001 52C17.7089 52 16.9356 51.7654 16.2778 51.3259C15.62 50.8864 15.1073 50.2616 14.8045 49.5307C14.5018 48.7998 14.4226 47.9956 14.5769 47.2196C14.7313 46.4437 15.1122 45.731 15.6716 45.1716C16.231 44.6122 16.9438 44.2312 17.7197 44.0769C18.4956 43.9225 19.2999 44.0017 20.0308 44.3045C20.7617 44.6072 21.3864 45.1199 21.8259 45.7777C22.2655 46.4355 22.5001 47.2089 22.5001 48C22.499 49.0605 22.0772 50.0773 21.3273 50.8273C20.5774 51.5772 19.5606 51.9989 18.5001 52ZM46.5001 22H51.1801L55.4681 32H46.5001V22ZM46.5001 52C45.7089 52 44.9356 51.7654 44.2778 51.3259C43.62 50.8864 43.1073 50.2616 42.8045 49.5307C42.5018 48.7998 42.4226 47.9956 42.5769 47.2196C42.7313 46.4437 43.1122 45.731 43.6716 45.1716C44.231 44.6122 44.9438 44.2312 45.7197 44.0769C46.4956 43.9225 47.2999 44.0017 48.0308 44.3045C48.7617 44.6072 49.3864 45.1199 49.8259 45.7777C50.2655 46.4355 50.5001 47.2089 50.5001 48C50.499 49.0605 50.0772 50.0773 49.3273 50.8273C48.5774 51.5772 47.5606 51.9989 46.5001 52ZM56.5001 46H54.2161C53.7755 44.2869 52.7789 42.7684 51.3825 41.6825C49.9862 40.5967 48.2689 40.0049 46.5001 40V36H56.5001V46Z" fill="#C68457"/>
</svg>
