<svg width="26" height="24" viewBox="0 0 26 24" fill="none" xmlns="http://www.w3.org/2000/svg">
<path d="M10.424 1.39C10.5704 1.15583 10.4992 0.847356 10.265 0.701001C10.0308 0.554646 9.72236 0.625832 9.576 0.860001L10.424 1.39ZM15.9045 0.879869C15.7692 0.63919 15.4643 0.55383 15.2236 0.689212C14.9829 0.824594 14.8976 1.12945 15.033 1.37013L15.9045 0.879869ZM24.5658 12.435L24.0858 12.295L24.5658 12.435ZM21.9044 21.56L21.4244 21.42L21.9044 21.56ZM4.99905 23.5H19.9844V22.5H4.99905V23.5ZM22.3844 21.7L25.0458 12.575L24.0858 12.295L21.4244 21.42L22.3844 21.7ZM0.292447 12.4813L2.5737 21.6063L3.54384 21.3638L1.26259 12.2388L0.292447 12.4813ZM4.53125 9.375H2.7178V10.375H4.53125V9.375ZM4.95525 10.14L10.424 1.39L9.576 0.860001L4.10725 9.61L4.95525 10.14ZM22.6458 9.375H20.3906V10.375H22.6458V9.375ZM20.3906 9.375H4.53125V10.375H20.3906V9.375ZM20.8264 9.62987L15.9045 0.879869L15.033 1.37013L19.9548 10.1201L20.8264 9.62987ZM1.26259 12.2388C1.02591 11.2921 1.74195 10.375 2.7178 10.375V9.375C1.09137 9.375 -0.10202 10.9035 0.292447 12.4813L1.26259 12.2388ZM25.0458 12.575C25.5125 10.975 24.3125 9.375 22.6458 9.375V10.375C23.6458 10.375 24.3658 11.335 24.0858 12.295L25.0458 12.575ZM19.9844 23.5C21.0955 23.5 22.0733 22.7667 22.3844 21.7L21.4244 21.42C21.2377 22.06 20.651 22.5 19.9844 22.5V23.5ZM4.99905 22.5C4.31075 22.5 3.71078 22.0316 3.54384 21.3638L2.5737 21.6063C2.85193 22.7193 3.85188 23.5 4.99905 23.5V22.5Z" fill="#C68457"/>
<path d="M7.8125 14.25V18.625M17.6562 14.25V18.625" stroke="#C68457" stroke-linecap="round"/>
</svg>
