<svg width="72" height="71" viewBox="0 0 72 71" fill="none" xmlns="http://www.w3.org/2000/svg">
<path d="M11.5 39H35.5V43H11.5V39ZM7.5 29H27.5V33H7.5V29Z" fill="#C68457"/>
<path d="M63.3382 40.212L57.3382 26.212C57.1842 25.8522 56.9279 25.5455 56.6012 25.33C56.2744 25.1145 55.8916 24.9998 55.5002 25H49.5002V21C49.5002 20.4696 49.2895 19.9609 48.9144 19.5858C48.5393 19.2107 48.0306 19 47.5002 19H15.5002V23H45.5002V48.112C44.5888 48.6412 43.7913 49.3456 43.1535 50.1845C42.5157 51.0234 42.0503 51.9803 41.7842 53H29.2162C28.7294 51.1147 27.5717 49.4716 25.9602 48.3788C24.3486 47.286 22.3938 46.8184 20.4622 47.0638C18.5306 47.3091 16.7547 48.2505 15.4675 49.7115C14.1804 51.1726 13.4702 53.0529 13.4702 55C13.4702 56.9471 14.1804 58.8274 15.4675 60.2885C16.7547 61.7495 18.5306 62.6909 20.4622 62.9362C22.3938 63.1816 24.3486 62.714 25.9602 61.6212C27.5717 60.5284 28.7294 58.8853 29.2162 57H41.7842C42.2192 58.7165 43.2142 60.2389 44.6117 61.3263C46.0092 62.4138 47.7294 63.0043 49.5002 63.0043C51.2709 63.0043 52.9911 62.4138 54.3886 61.3263C55.7861 60.2389 56.7811 58.7165 57.2162 57H61.5002C62.0306 57 62.5393 56.7893 62.9144 56.4142C63.2895 56.0391 63.5002 55.5304 63.5002 55V41C63.5003 40.7291 63.4452 40.4609 63.3382 40.212ZM21.5002 59C20.7091 59 19.9357 58.7654 19.2779 58.3259C18.6201 57.8864 18.1074 57.2616 17.8047 56.5307C17.5019 55.7998 17.4227 54.9956 17.577 54.2196C17.7314 53.4437 18.1123 52.731 18.6718 52.1716C19.2312 51.6122 19.9439 51.2312 20.7198 51.0769C21.4957 50.9225 22.3 51.0017 23.0309 51.3045C23.7618 51.6072 24.3865 52.1199 24.8261 52.7777C25.2656 53.4355 25.5002 54.2089 25.5002 55C25.4991 56.0605 25.0774 57.0773 24.3274 57.8273C23.5775 58.5772 22.5607 58.9989 21.5002 59ZM49.5002 29H54.1802L58.4682 39H49.5002V29ZM49.5002 59C48.7091 59 47.9357 58.7654 47.2779 58.3259C46.6201 57.8864 46.1074 57.2616 45.8047 56.5307C45.5019 55.7998 45.4227 54.9956 45.577 54.2196C45.7314 53.4437 46.1123 52.731 46.6718 52.1716C47.2312 51.6122 47.9439 51.2312 48.7198 51.0769C49.4957 50.9225 50.3 51.0017 51.0309 51.3045C51.7618 51.6072 52.3865 52.1199 52.8261 52.7777C53.2656 53.4355 53.5002 54.2089 53.5002 55C53.4991 56.0605 53.0774 57.0773 52.3274 57.8273C51.5775 58.5772 50.5607 58.9989 49.5002 59ZM59.5002 53H57.2162C56.7756 51.2869 55.779 49.7684 54.3827 48.6825C52.9863 47.5967 51.2691 47.0049 49.5002 47V43H59.5002V53Z" fill="#C68457"/>
</svg>
