<svg width="79" height="67" viewBox="0 0 79 67" fill="none" xmlns="http://www.w3.org/2000/svg">
<path d="M29.1967 38.4339H12.3058V34.2472H29.1328C30.5817 34.2472 31.7802 34.0075 32.7283 33.5281C33.6765 33.038 34.3796 32.3668 34.8377 31.5146C35.2958 30.6516 35.5249 29.6609 35.5249 28.5423C35.5249 27.4343 35.2958 26.4435 34.8377 25.57C34.3796 24.6964 33.6818 24.0092 32.7443 23.5085C31.8068 22.9972 30.6243 22.7415 29.1967 22.7415H22.2294V51.25H17.3075V18.5227H29.1967C31.679 18.5227 33.7511 18.9702 35.413 19.8651C37.0856 20.7599 38.3374 21.9638 39.1683 23.4766C40.0099 24.9893 40.4308 26.6726 40.4308 28.5263C40.4308 30.4013 40.0046 32.0898 39.1523 33.592C38.3107 35.0835 37.0536 36.266 35.381 37.1396C33.7191 38.0025 31.6577 38.4339 29.1967 38.4339ZM29.4364 41.1825V45.3853H12.3058V41.1825H29.4364Z" fill="#C68457"/>
<path d="M44.9518 43.4991C44.192 42.6973 42.9261 42.6632 42.1244 43.423C41.3226 44.1827 41.2885 45.4486 42.0482 46.2504L44.9518 43.4991ZM52.4147 54.2828L50.963 55.6584C51.3407 56.057 51.8656 56.2828 52.4147 56.2828C52.9638 56.2828 53.4888 56.057 53.8665 55.6584L52.4147 54.2828ZM69.9518 38.683C70.7115 37.8812 70.6774 36.6154 69.8756 35.8556C69.0739 35.0959 67.808 35.1299 67.0482 35.9317L69.9518 38.683ZM42.0482 46.2504L50.963 55.6584L53.8665 52.9071L44.9518 43.4991L42.0482 46.2504ZM53.8665 55.6584L69.9518 38.683L67.0482 35.9317L50.963 52.9071L53.8665 55.6584Z" fill="#C68457"/>
</svg>
