<svg width="25" height="20" viewBox="0 0 25 20" fill="none" xmlns="http://www.w3.org/2000/svg">
<path d="M2.30163 17.8166C0.885375 16.3123 0.125 14.6252 0.125 11.8903C0.125 7.07784 3.50337 2.76446 8.41625 0.631836L9.64412 2.52659C5.0585 5.00709 4.162 8.22596 3.8045 10.2555C4.54288 9.87321 5.5095 9.73984 6.45687 9.82784C8.93738 10.0575 10.8926 12.0938 10.8926 14.6252C10.8926 15.9016 10.3856 17.1256 9.48308 18.0282C8.58056 18.9307 7.35648 19.4377 6.08012 19.4377C5.37428 19.4315 4.67671 19.285 4.02802 19.0067C3.37933 18.7284 2.79248 18.3238 2.30163 17.8166ZM16.0516 17.8166C14.6354 16.3123 13.875 14.6252 13.875 11.8903C13.875 7.07784 17.2534 2.76446 22.1663 0.631836L23.3941 2.52659C18.8085 5.00709 17.912 8.22596 17.5545 10.2555C18.2929 9.87321 19.2595 9.73984 20.2069 9.82784C22.6874 10.0575 24.6426 12.0938 24.6426 14.6252C24.6426 15.9016 24.1356 17.1256 23.2331 18.0282C22.3306 18.9307 21.1065 19.4377 19.8301 19.4377C19.1243 19.4315 18.4267 19.285 17.778 19.0067C17.1293 18.7284 16.5425 18.3238 16.0516 17.8166Z" fill="#8D8D8D"/>
</svg>
