<svg width="23" height="21" viewBox="0 0 23 21" fill="none" xmlns="http://www.w3.org/2000/svg">
<path d="M11.0245 1.08156C11.1741 0.620903 11.8259 0.620905 11.9755 1.08156L13.8309 6.7918C14.0317 7.40983 14.6076 7.82827 15.2575 7.82827H21.2616C21.7459 7.82827 21.9473 8.44808 21.5555 8.73278L16.6981 12.2619C16.1723 12.6439 15.9523 13.3209 16.1531 13.939L18.0085 19.6492C18.1582 20.1098 17.6309 20.4929 17.2391 20.2082L12.3817 16.6791C11.8559 16.2971 11.1441 16.2971 10.6183 16.6791L5.76091 20.2082C5.36905 20.4929 4.84181 20.1098 4.99148 19.6492L6.84685 13.939C7.04766 13.3209 6.82768 12.6439 6.30195 12.2619L1.44453 8.73278C1.05267 8.44808 1.25406 7.82827 1.73842 7.82827H7.74252C8.39236 7.82827 8.96829 7.40983 9.1691 6.7918L11.0245 1.08156Z" stroke="#C68457"/>
</svg>
