<svg width="25" height="30" viewBox="0 0 25 30" fill="none" xmlns="http://www.w3.org/2000/svg">
<path d="M12.5 0.5C9.186 0.503563 6.00885 1.70502 3.66549 3.84083C1.32214 5.97663 0.00392292 8.87238 1.32987e-05 11.8929C-0.00395589 14.3612 0.880672 16.7626 2.51819 18.7286C2.51819 18.7286 2.8591 19.1377 2.91478 19.1967L12.5 29.5L22.0898 19.1915C22.1398 19.1366 22.4818 18.7286 22.4818 18.7286L22.4829 18.7255C24.1197 16.7603 25.0039 14.3601 25 11.8929C24.9961 8.87238 23.6779 5.97663 21.3345 3.84083C18.9912 1.70502 15.814 0.503563 12.5 0.5ZM12.5 16.0357C11.601 16.0357 10.7222 15.7927 9.97468 15.3375C9.22719 14.8823 8.64459 14.2353 8.30055 13.4783C7.95652 12.7213 7.8665 11.8883 8.04189 11.0846C8.21728 10.281 8.65019 9.5428 9.28588 8.96341C9.92157 8.38403 10.7315 7.98946 11.6132 7.8296C12.495 7.66975 13.4089 7.75179 14.2395 8.06536C15.07 8.37892 15.7799 8.90992 16.2794 9.59121C16.7789 10.2725 17.0455 11.0735 17.0455 11.8929C17.0439 12.9912 16.5646 14.0441 15.7125 14.8208C14.8603 15.5974 13.7051 16.0343 12.5 16.0357Z" fill="#C68457"/>
</svg>
