<svg width="27" height="24" viewBox="0 0 27 24" fill="none" xmlns="http://www.w3.org/2000/svg">
<path fill-rule="evenodd" clip-rule="evenodd" d="M3.18163 0.76529C3.47689 0.503212 3.83144 0.299907 4.22177 0.168848C4.6121 0.0377897 5.02931 -0.0180293 5.44575 0.00509005C5.86218 0.0282094 6.26834 0.129739 6.63729 0.302951C7.00625 0.476164 7.32958 0.717103 7.58587 1.0098L10.6148 4.46896C11.17 5.10349 11.3658 5.93003 11.1464 6.71006L10.2233 9.99521C10.1756 10.1654 10.1782 10.3436 10.2308 10.5126C10.2835 10.6816 10.3844 10.8356 10.5237 10.9598L14.6698 14.6454C14.8096 14.7696 14.9831 14.8594 15.1736 14.9062C15.364 14.953 15.5648 14.9551 15.7565 14.9124L19.4503 14.0919C19.8833 13.9957 20.3353 13.9882 20.7721 14.07C21.2088 14.1519 21.6189 14.321 21.9714 14.5644L25.8626 17.2555C27.2615 18.2231 27.3897 20.0607 26.1377 21.1722L24.3928 22.7233C23.1441 23.8333 21.2778 24.3209 19.5381 23.7763C15.0852 22.3836 11.0422 20.1174 7.70905 17.146C4.36671 14.1834 1.81751 10.5899 0.250537 6.63206C-0.360319 5.08699 0.188101 3.42641 1.43681 2.31636L3.18163 0.76529Z" fill="#C68457"/>
</svg>
