<svg width="27" height="20" viewBox="0 0 27 20" fill="none" xmlns="http://www.w3.org/2000/svg">
<path d="M26.0357 0H0.964286C0.430915 0 0 0.40625 0 0.909091V19.0909C0 19.5938 0.430915 20 0.964286 20H26.0357C26.5691 20 27 19.5938 27 19.0909V0.909091C27 0.40625 26.5691 0 26.0357 0ZM23.6009 3.09375L14.0936 10.0682C13.8586 10.2415 13.5301 10.2415 13.2951 10.0682L3.78482 3.09375C3.74897 3.06767 3.72268 3.03166 3.70962 2.99078C3.69657 2.9499 3.69741 2.90619 3.71203 2.86579C3.72665 2.82538 3.75431 2.7903 3.79114 2.76546C3.82797 2.74062 3.87213 2.72727 3.91741 2.72727H23.4683C23.5136 2.72727 23.5577 2.74062 23.5946 2.76546C23.6314 2.7903 23.6591 2.82538 23.6737 2.86579C23.6883 2.90619 23.6891 2.9499 23.6761 2.99078C23.663 3.03166 23.6367 3.06767 23.6009 3.09375Z" fill="#C68457"/>
</svg>
