<svg width="18" height="16" viewBox="0 0 18 16" fill="none" xmlns="http://www.w3.org/2000/svg">
<path d="M17.3571 0.5H0.642857C0.287277 0.5 0 0.804688 0 1.18182V14.8182C0 15.1953 0.287277 15.5 0.642857 15.5H17.3571C17.7127 15.5 18 15.1953 18 14.8182V1.18182C18 0.804688 17.7127 0.5 17.3571 0.5ZM15.7339 2.82031L9.39576 8.05114C9.23906 8.18111 9.02009 8.18111 8.86339 8.05114L2.52321 2.82031C2.49931 2.80075 2.48178 2.77375 2.47308 2.74309C2.46438 2.71242 2.46494 2.67964 2.47469 2.64934C2.48443 2.61903 2.50287 2.59272 2.52743 2.57409C2.55198 2.55546 2.58142 2.54545 2.61161 2.54545H15.6455C15.6757 2.54545 15.7052 2.55546 15.7297 2.57409C15.7543 2.59272 15.7727 2.61903 15.7825 2.64934C15.7922 2.67964 15.7928 2.71242 15.7841 2.74309C15.7754 2.77375 15.7578 2.80075 15.7339 2.82031Z" fill="#C68457"/>
</svg>
