<svg width="17" height="18" viewBox="0 0 17 18" fill="none" xmlns="http://www.w3.org/2000/svg">
<path fill-rule="evenodd" clip-rule="evenodd" d="M2.00325 1.04208C2.18915 0.856442 2.41239 0.712434 2.65815 0.619601C2.90392 0.526768 3.1666 0.487229 3.4288 0.503605C3.691 0.519982 3.94673 0.591899 4.17904 0.714591C4.41134 0.837283 4.61492 1.00795 4.77629 1.21528L6.68342 3.66551C7.03297 4.11497 7.15621 4.70044 7.01809 5.25296L6.43692 7.57994C6.40688 7.70047 6.4085 7.82671 6.44164 7.94643C6.47477 8.06614 6.5383 8.17525 6.62604 8.26316L9.23652 10.8738C9.32454 10.9618 9.43382 11.0254 9.55373 11.0586C9.67363 11.0917 9.80008 11.0932 9.92075 11.063L12.2465 10.4818C12.5191 10.4136 12.8037 10.4083 13.0787 10.4663C13.3537 10.5243 13.6119 10.644 13.8338 10.8165L16.2839 12.7227C17.1647 13.408 17.2454 14.7096 16.457 15.497L15.3585 16.5957C14.5722 17.382 13.3971 17.7273 12.3017 17.3416C9.49809 16.355 6.95251 14.7498 4.85385 12.6451C2.74941 10.5466 1.14436 8.0012 0.157745 5.19771C-0.226868 4.10328 0.118434 2.92704 0.90466 2.14076L2.00325 1.04208Z" fill="#C68457"/>
</svg>
