<svg width="25" height="30" viewBox="0 0 25 30" fill="none" xmlns="http://www.w3.org/2000/svg">
<path d="M12.5 0.25C9.186 0.253563 6.00885 1.45502 3.66549 3.59083C1.32214 5.72663 0.00392292 8.62238 1.32987e-05 11.6429C-0.00395589 14.1112 0.880672 16.5126 2.51819 18.4786C2.51819 18.4786 2.8591 18.8877 2.91478 18.9467L12.5 29.25L22.0898 18.9415C22.1398 18.8866 22.4818 18.4786 22.4818 18.4786L22.4829 18.4755C24.1197 16.5103 25.0039 14.1101 25 11.6429C24.9961 8.62238 23.6779 5.72663 21.3345 3.59083C18.9912 1.45502 15.814 0.253563 12.5 0.25ZM12.5 15.7857C11.601 15.7857 10.7222 15.5427 9.97468 15.0875C9.22719 14.6323 8.64459 13.9853 8.30055 13.2283C7.95652 12.4713 7.8665 11.6383 8.04189 10.8346C8.21728 10.031 8.65019 9.2928 9.28588 8.71341C9.92157 8.13403 10.7315 7.73946 11.6132 7.5796C12.495 7.41975 13.4089 7.50179 14.2395 7.81536C15.07 8.12892 15.7799 8.65992 16.2794 9.34121C16.7789 10.0225 17.0455 10.8235 17.0455 11.6429C17.0439 12.7412 16.5646 13.7941 15.7125 14.5708C14.8603 15.3474 13.7051 15.7843 12.5 15.7857Z" fill="#C68457"/>
</svg>
