<svg width="75" height="50" viewBox="0 0 75 50" fill="none" xmlns="http://www.w3.org/2000/svg">
<rect x="0.837128" y="1.24106" width="73.3245" height="47.5179" rx="3.91306" fill="#F3F3F3" stroke="#C68457" stroke-width="0.869569"/>
<line x1="9.00391" y1="16.5108" x2="27.2836" y2="16.5108" stroke="#C68457" stroke-width="3"/>
<circle cx="54.0569" cy="17.9033" r="4.19358" fill="#C68457"/>
<circle cx="59.6487" cy="17.9033" r="4.19358" fill="#C68457"/>
<path d="M13.0879 32.7295V39.8388H11.4424V34.5849L9.82129 35.0586V33.8086L12.9365 32.7295H13.0879ZM18.8887 32.7295V39.8388H17.2432V34.5849L15.6221 35.0586V33.8086L18.7373 32.7295H18.8887ZM24.6895 32.7295V39.8388H23.0439V34.5849L21.4229 35.0586V33.8086L24.5381 32.7295H24.6895ZM30.4902 32.7295V39.8388H28.8447V34.5849L27.2236 35.0586V33.8086L30.3389 32.7295H30.4902ZM36.291 32.7295V39.8388H34.6455V34.5849L33.0244 35.0586V33.8086L36.1396 32.7295H36.291ZM42.0918 32.7295V39.8388H40.4463V34.5849L38.8252 35.0586V33.8086L41.9404 32.7295H42.0918Z" fill="#C68457"/>
</svg>
