<svg width="65" height="66" viewBox="0 0 65 66" fill="none" xmlns="http://www.w3.org/2000/svg">
<path d="M39.762 0.984661C39.4656 1.15224 38.8984 1.79677 38.0605 2.94403C37.3773 3.88505 36.7714 4.68427 36.7327 4.72294C36.6941 4.76162 36.4234 4.65849 36.1398 4.5038C34.9667 3.83349 33.5101 4.56825 33.1878 5.97333C33.0331 6.66943 33.2394 7.18505 34.2577 8.65458L35.1085 9.87919L34.6702 10.2143C34.0902 10.6526 33.5745 11.7354 33.5745 12.4702C33.5745 13.1405 33.9484 14.0686 34.4124 14.5456L34.7218 14.8679L32.4015 16.8015C29.3851 19.2893 25.918 23.6235 25.918 24.0618C25.918 24.6032 27.5168 24.1892 28.084 24.1892C28.4449 24.1892 31.1253 20.5913 31.8601 19.9081C32.337 19.4569 33.6906 18.271 34.8636 17.2784L36.9906 15.4608L40.7417 15.4479H44.48L47.2515 17.8069C48.7726 19.1089 50.4741 20.6686 51.0413 21.2616C52.8718 23.1694 54.3671 25.7089 55.2179 28.3128C56.0042 30.6847 56.0429 31.1487 56.1202 37.1171C56.1976 42.2862 56.2105 42.6343 56.4425 42.8921C56.7777 43.2659 57.5769 43.2659 57.9507 42.8921C58.2085 42.6343 58.2214 42.5698 58.157 37.0011C58.1054 31.7804 58.0796 31.2776 57.8218 30.0788C56.9839 26.2632 55.321 22.989 52.7558 20.1015C51.905 19.1218 49.1722 16.6854 47.1226 15.0483L46.8261 14.8034L47.1613 14.3522C48.1796 13.0245 48.1281 11.4647 47.0324 10.3175L46.4909 9.75029L47.3675 8.40966C47.8574 7.66201 48.2956 6.8499 48.3472 6.60497C48.4632 5.94755 48.2054 5.22567 47.6898 4.76161C46.9034 4.07841 45.9495 3.98818 45.1116 4.54247C44.8152 4.73583 44.7894 4.71005 43.4745 3.04716C42.7398 2.10615 41.9534 1.2038 41.7085 1.04911C41.1671 0.688179 40.3808 0.662395 39.762 0.984661ZM42.1984 4.68427C43.9515 6.94013 44.5187 7.26239 45.7949 6.68232C46.1171 6.54052 46.3105 6.50185 46.2589 6.59208C46.2074 6.68232 45.7691 7.33974 45.2792 8.06161L44.4027 9.38935H40.8191L37.2484 9.37646L36.6425 8.38388C36.3074 7.84247 35.9077 7.19794 35.7531 6.9788L35.4824 6.55341L35.9464 6.74677C37.0937 7.22372 37.6738 6.87568 39.3753 4.68427C40.123 3.73036 40.7546 2.95692 40.7933 2.95692C40.832 2.95692 41.4636 3.73036 42.1984 4.68427ZM45.6273 11.7741C45.8335 11.9675 45.9495 12.2382 45.9495 12.4831C45.9495 12.728 45.8335 12.9987 45.6273 13.1921L45.3179 13.5143H40.7933H36.2687L35.9593 13.1921C35.7531 12.9987 35.637 12.728 35.637 12.4831C35.637 12.2382 35.7531 11.9675 35.9593 11.7741L36.2687 11.4518H40.7933H45.3179L45.6273 11.7741Z" fill="#C68457"/>
<path d="M26.4332 23.337C25.634 24.0589 24.1773 27.694 23.6359 30.3366C23.3652 31.6514 23.3395 32.1542 23.2879 37.1944L23.2363 42.6343L23.5715 42.9694C23.9582 43.3561 24.5254 43.3948 24.9508 43.0468L25.2602 42.8018L25.3375 37.4007C25.3891 32.9663 25.4406 31.819 25.634 30.9167C25.9949 29.1893 26.691 27.2042 27.4516 25.6831C27.8383 24.9225 28.1605 24.1878 28.1605 24.046C28.1605 23.6979 27.4645 23.0534 27.0777 23.0534C26.8973 23.0534 26.6137 23.1823 26.4332 23.337Z" fill="#C68457"/>
<path d="M48.2825 23.5175C47.8829 24.0202 47.9474 24.3554 48.5661 25.1932C50.2032 27.4233 51.3118 29.9886 51.879 32.8761C51.9822 33.4175 52.124 33.6882 52.356 33.8815C53.0779 34.4487 53.9415 33.9975 53.9415 33.0307C53.9415 32.3089 53.3743 30.0917 52.8458 28.6995C52.1368 26.869 50.9251 24.7807 49.9197 23.6335C49.404 23.0405 48.695 23.0018 48.2825 23.5175Z" fill="#C68457"/>
<path d="M40.0843 24.1491C39.8136 24.4069 39.7621 24.5874 39.7621 25.2448C39.7621 25.7733 39.7105 26.0183 39.6074 26.0183C39.2465 26.0183 37.8543 26.7917 37.2871 27.2944C36.4363 28.055 35.7789 29.3956 35.6758 30.5944C35.5468 32.2573 36.1269 33.7526 37.3258 34.8355C38.3699 35.7765 38.9886 35.9956 41.3218 36.2663C42.1468 36.3694 43.0105 36.9495 43.4617 37.7101C43.7711 38.2386 43.8226 38.4706 43.8226 39.3085C43.8226 40.1722 43.7711 40.3526 43.4359 40.9198C43.191 41.3065 42.8043 41.6933 42.4176 41.9382C41.8504 42.2862 41.6699 42.3249 40.7933 42.3249C39.9168 42.3249 39.7363 42.2862 39.1691 41.9382C38.3441 41.4226 37.8672 40.6362 37.7254 39.5663C37.6351 38.9476 37.532 38.6769 37.3129 38.4964C36.9004 38.1612 36.3332 38.1999 35.9336 38.5995C35.6242 38.9089 35.6113 38.9862 35.6758 39.7855C35.7918 40.9456 36.4621 42.312 37.2871 43.0468C37.8543 43.5495 39.2465 44.323 39.6074 44.323C39.7105 44.323 39.7621 44.5679 39.7621 45.0964C39.7621 45.7538 39.8136 45.9343 40.0843 46.1921C40.4968 46.6175 41.0898 46.6175 41.5023 46.1921C41.773 45.9343 41.8246 45.7538 41.8246 45.0964C41.8246 44.5679 41.8761 44.323 41.9922 44.323C42.0695 44.323 42.5078 44.1554 42.959 43.9362C45.1761 42.8921 46.375 40.3784 45.7691 38.0323C45.4984 36.9495 45.0472 36.2148 44.1965 35.4413C43.3328 34.655 42.4433 34.3069 40.8965 34.1394C39.4527 33.9976 38.7437 33.6108 38.1508 32.6698C37.8027 32.1026 37.764 31.9222 37.764 31.0456C37.764 30.169 37.8027 29.9886 38.1508 29.4214C38.3957 29.0347 38.7824 28.648 39.1691 28.403C39.7363 28.055 39.9168 28.0163 40.7933 28.0163C41.6699 28.0163 41.8504 28.055 42.4176 28.403C43.2425 28.9187 43.7195 29.705 43.8613 30.7749C43.9515 31.3937 44.0547 31.6644 44.2738 31.8448C44.6863 32.18 45.2535 32.1413 45.6531 31.7417C45.9625 31.4323 45.9754 31.355 45.9109 30.5558C45.7949 29.3956 45.1246 28.0292 44.2996 27.2944C43.7324 26.7917 42.3402 26.0183 41.9922 26.0183C41.8761 26.0183 41.8246 25.7733 41.8246 25.2448C41.8246 24.5874 41.773 24.4069 41.5023 24.1491C41.309 23.9429 41.0383 23.8269 40.7933 23.8269C40.5484 23.8269 40.2777 23.9429 40.0843 24.1491Z" fill="#C68457"/>
<path d="M52.459 36.5241C52.1496 36.8206 52.1367 36.9237 52.1367 38.2643C52.1367 39.605 52.1496 39.7081 52.459 40.0046C52.6523 40.2108 52.923 40.3268 53.168 40.3268C53.4129 40.3268 53.6836 40.2108 53.877 40.0046C54.1863 39.7081 54.1992 39.605 54.1992 38.2643C54.1992 36.9237 54.1863 36.8206 53.877 36.5241C53.6836 36.3179 53.4129 36.2018 53.168 36.2018C52.923 36.2018 52.6523 36.3179 52.459 36.5241Z" fill="#C68457"/>
<path d="M2.71968 42.5948C2.0107 42.8526 1.39195 43.3811 0.992337 44.0643C0.65718 44.6186 0.631399 44.7991 0.579837 46.2429C0.541165 47.7897 0.295838 50.7546 0.630994 51.0768C1.05638 51.5151 2.08804 51.3475 2.50054 50.9222C2.79702 50.6386 2.62945 47.7511 2.62945 46.5393C2.62945 45.2632 2.64234 45.2245 3.00327 44.8507L3.3771 44.4768H5.77476C8.10796 44.4768 8.15952 44.4897 8.52046 44.7862L8.8814 45.0956L8.92007 53.6163C8.95874 62.9233 8.97163 62.7557 8.22398 63.0393C8.04351 63.1167 6.97359 63.1682 5.82632 63.1682C3.57046 63.1682 3.05484 63.0522 2.77124 62.4464C2.66812 62.2272 2.62945 60.4741 2.62945 56.6456C2.62945 53.3198 2.57788 51.0768 2.50054 50.9222C2.43609 50.7933 2.19116 50.6257 1.97202 50.5483C1.4564 50.3679 0.734524 50.6515 0.631399 51.0768C0.592727 51.2444 0.566946 53.9515 0.592727 57.1097C0.631399 62.7429 0.631399 62.8589 0.914993 63.3745C1.30171 64.1093 2.16538 64.8054 2.93882 65.0374C3.84116 65.3081 7.86304 65.3081 8.77827 65.0374C9.59038 64.7925 10.3767 64.0577 10.6861 63.2585L10.9052 62.6784L12.0783 62.3561C14.3986 61.6987 16.6029 61.4925 18.3173 61.7374C18.8845 61.8147 21.424 62.4979 23.9505 63.2327C29.3001 64.7925 30.3958 64.9858 32.5744 64.7409C33.3091 64.6507 34.4306 64.4444 35.0751 64.264C36.4802 63.8901 41.1466 61.8534 41.456 61.4796C41.9072 60.9382 41.688 60.1905 41.0177 59.9585C40.6439 59.8296 40.4763 59.8811 38.9294 60.603C35.0107 62.4464 34.1083 62.7429 32.0201 62.8718C30.2798 62.9749 29.4162 62.8073 24.6982 61.4151C22.4037 60.7448 20.0447 60.1003 19.4775 59.9972C17.4537 59.6491 13.8572 59.8167 11.7044 60.3839L11.0084 60.5643V53.6421V46.7327L12.6583 46.1784C14.6306 45.5081 15.6619 45.3405 16.8478 45.5081C17.3248 45.5854 19.6708 46.2815 22.0685 47.055C28.3591 49.1175 27.7662 49.0015 32.4197 49.1046L36.3642 49.1819L36.8412 49.5557C38.0013 50.4323 37.9498 52.005 36.738 52.9073C36.39 53.1651 36.1966 53.178 30.0607 53.2425L23.7443 53.3069L23.4994 53.6163C23.1513 54.0417 23.19 54.6089 23.5767 54.9956L23.899 55.3179L30.3056 55.2792L36.7251 55.2405L37.4599 54.8796C37.9111 54.6604 38.4267 54.2608 38.7748 53.8612L39.3419 53.2167L49.6931 49.9425C55.3908 48.1507 60.2248 46.6682 60.4181 46.6682C61.6298 46.6554 62.7384 48.0089 62.5064 49.2206C62.3904 49.878 61.9779 50.4968 61.5009 50.7546C61.2689 50.8706 58.7166 52.0308 55.8033 53.3327C52.8255 54.6604 41.0177 59.5076 40.3081 60.0173C39.8054 60.6102 40.6697 61.4796 41.456 61.4796C41.9974 61.4796 61.9908 52.8815 62.8416 52.2628C63.963 51.4507 64.556 50.2905 64.5431 48.9241C64.5431 46.9261 63.2412 45.0956 61.4752 44.6057C60.2634 44.2706 59.6962 44.4124 49.4869 47.6608L39.8189 50.7417L39.6126 50.0198C39.3677 49.1046 38.981 48.4729 38.3107 47.9058C37.3439 47.0679 37.0474 47.0163 32.4712 46.9261C27.7146 46.8229 28.8748 47.055 22.133 44.8249C19.5162 43.9483 17.6083 43.394 16.9509 43.2909C15.533 43.0975 14.2697 43.2909 12.3361 43.9999L10.815 44.5671L10.5959 44.1417C10.2478 43.4843 9.50015 42.8397 8.84273 42.6206C8.0564 42.3499 3.46734 42.337 2.71968 42.5948Z" fill="#C68457"/>
<path d="M5.0209 55.2155C4.24747 55.989 5.09825 57.2522 6.10372 56.8268C6.47754 56.6722 6.76114 56.2339 6.76114 55.7827C6.76114 55.3831 6.19395 54.8932 5.72989 54.8932C5.48497 54.8932 5.21426 55.0093 5.0209 55.2155Z" fill="#C68457"/>
<path d="M15.1406 55.6151C14.9602 55.6538 14.5605 55.7054 14.2512 55.744C13.5293 55.8343 13.0781 56.2725 13.0781 56.8655C13.0781 57.1362 13.1812 57.394 13.3359 57.5358C13.5809 57.755 13.8645 57.7808 16.275 57.7936C18.9305 57.8065 18.9562 57.8065 20.7352 58.2835C22.8105 58.8378 23.1586 58.8636 23.5195 58.4768C23.8289 58.1417 23.8418 57.8452 23.5711 57.3296C23.3262 56.8526 22.9781 56.6979 20.993 56.1952C18.75 55.628 16.5328 55.4089 15.1406 55.6151Z" fill="#C68457"/>
<path d="M5.2793 58.9151C4.89258 59.1343 4.71211 59.4307 4.69922 59.8304C4.69922 60.3202 5.21484 60.8229 5.73047 60.8229C6.19453 60.8229 6.76172 60.3331 6.76172 59.9335C6.76172 59.5081 6.49102 59.0569 6.15586 58.9022C5.76914 58.7218 5.60156 58.7347 5.2793 58.9151Z" fill="#C68457"/>
</svg>
