<svg width="63" height="63" viewBox="0 0 63 63" fill="none" xmlns="http://www.w3.org/2000/svg">
<path d="M26.658 0.654584C26.0647 0.848325 25.0475 1.88968 24.8659 2.50723C24.7811 2.78573 24.7206 3.31852 24.7206 3.69389V4.37198H23.0738C21.0153 4.37198 20.6036 4.48096 19.8165 5.28014C19.0174 6.06721 18.9084 6.47891 18.9084 8.5374V10.1842H12.8177C9.0155 10.1842 6.44844 10.2326 6.00042 10.3174C3.43335 10.7775 1.09636 13.1145 0.636224 15.6816C0.454592 16.6866 0.454592 55.9917 0.636224 56.9967C1.09636 59.5638 3.43335 61.9008 6.00042 62.3609C6.49688 62.4578 14.7066 62.4941 32.4097 62.4941C61.386 62.4941 58.7947 62.591 59.7513 61.5254C60.0419 61.2106 60.3446 60.7263 60.4173 60.4599C60.5142 60.1208 60.5626 58.474 60.5626 54.9019V49.8041L60.9138 49.6588C61.4102 49.4651 62.0157 48.8354 62.2699 48.2663C62.4758 47.8183 62.5 47.3461 62.5 42.1514C62.5 36.9567 62.4758 36.4845 62.2699 36.0364C62.0157 35.4673 61.4102 34.8377 60.9138 34.6439L60.5626 34.4986V29.4008C60.5626 25.8287 60.5142 24.1819 60.4173 23.8429C60.3446 23.5765 60.0419 23.0922 59.7513 22.7773C59.0611 22.0145 58.4678 21.8086 56.9057 21.8086H55.7191V12.4122C55.7191 5.4981 55.6828 2.8826 55.5738 2.53145C55.5011 2.26505 55.1984 1.7807 54.9078 1.46587C53.9754 0.424517 55.0047 0.49717 40.1714 0.509279C30.9929 0.521388 26.9607 0.557714 26.658 0.654584ZM53.479 2.73729L53.7817 3.02791V12.4243V21.8086L51.8201 21.7844L49.8584 21.7481L49.7131 20.961C48.7444 15.7906 43.6345 12.279 38.5004 13.2598C34.4924 14.0348 31.4652 17.0378 30.7266 20.961L30.5812 21.7481L28.6196 21.7844L26.658 21.8086V12.4243V3.02791L26.9607 2.73729L27.2513 2.43458H40.2198H53.1883L53.479 2.73729ZM24.7206 14.059V21.8086H22.7832H20.8458V14.3617V6.90272L21.1485 6.61211C21.427 6.32149 21.4997 6.30939 23.0859 6.30939H24.7206V14.059ZM18.9084 16.9651V21.8207L12.527 21.7844L6.13361 21.7481L5.34654 21.3727C4.19621 20.8157 3.4939 20.1497 2.96111 19.0478C2.52519 18.176 2.50098 18.067 2.50098 16.9772C2.50098 15.9238 2.5373 15.7421 2.88846 15.0035C3.09431 14.5555 3.4939 13.95 3.76029 13.6594C4.29308 13.0782 5.39498 12.4364 6.14572 12.2548C6.41211 12.1943 9.37877 12.1458 12.7692 12.1337L18.9084 12.1216V16.9651ZM41.8545 15.2093C43.1744 15.4878 44.5911 16.2628 45.5961 17.2678C46.0684 17.7401 46.6375 18.4303 46.8555 18.8056C47.3035 19.5564 47.8484 21.0579 47.8484 21.518V21.8086H40.2198H32.5913V21.518C32.5913 21.1063 33.112 19.6048 33.4874 18.9873C34.3229 17.5463 35.5337 16.4323 37.0231 15.73C38.452 15.064 40.2198 14.8703 41.8545 15.2093ZM3.21539 22.3898C3.6392 22.7289 4.57158 23.2132 5.33443 23.4796C5.843 23.6613 8.20421 23.6855 32.0222 23.746L58.1651 23.8066L58.3951 24.0972C58.6131 24.3636 58.6252 24.63 58.6252 29.3887V34.4018H52.9098C46.4195 34.4018 46.1653 34.4381 44.47 35.2736C41.9272 36.5329 40.2198 39.2816 40.2198 42.1514C40.2198 44.1493 41.0432 46.1352 42.46 47.5398C43.4287 48.5085 44.2884 49.0534 45.5719 49.5135L46.4559 49.8405L52.5466 49.8768L58.6252 49.9131V54.9383V59.9634L58.3225 60.2661L58.0319 60.5567L32.0827 60.5325L6.13361 60.4962L5.32232 60.1087C4.19621 59.5759 3.4939 58.8978 2.949 57.7959L2.50098 56.8757L2.46465 39.33C2.44043 22.5594 2.44043 21.7844 2.64628 21.9418C2.76737 22.0266 3.02165 22.2324 3.21539 22.3898ZM60.3204 36.5813C60.5505 36.8114 60.5626 36.9809 60.5626 42.1514C60.5626 47.3218 60.5505 47.4914 60.3204 47.7214C60.0904 47.9515 59.9208 47.9636 53.6848 47.9636C48.4054 47.9636 47.1703 47.9273 46.6012 47.782C43.4771 46.9707 41.5518 43.7982 42.3389 40.7589C42.8717 38.7125 44.4942 37.0778 46.5527 36.5208C47.0492 36.3876 48.478 36.3513 53.6364 36.3513C59.9208 36.3392 60.0782 36.3392 60.3204 36.5813Z" fill="#C68457"/>
<path d="M31.8651 4.58994C31.6835 4.73524 31.5624 5.01375 31.4897 5.46177C31.3202 6.53945 30.7632 7.09646 29.6855 7.26598C28.5715 7.44761 28.5957 7.37496 28.5957 11.1771V14.4344L28.8985 14.725C29.0801 14.9187 29.3344 15.0277 29.5644 15.0277C29.7945 15.0277 30.0488 14.9187 30.2304 14.725L30.5332 14.4344V11.7947V9.15495L31.3202 8.74325C32.1678 8.30734 32.6885 7.75033 33.0881 6.86639L33.3303 6.30939H34.5412C35.6673 6.30939 35.7763 6.28517 36.0426 6.00667C36.2364 5.82503 36.3454 5.57075 36.3454 5.34068C36.3454 5.11062 36.2364 4.85633 36.0426 4.6747C35.7641 4.38409 35.7036 4.37198 33.9478 4.37198C32.3737 4.37198 32.0952 4.3962 31.8651 4.58994Z" fill="#C68457"/>
<path d="M44.3965 4.6747C44.2027 4.85633 44.0938 5.11062 44.0938 5.34068C44.0938 5.57075 44.2027 5.82503 44.3965 6.00667C44.6629 6.28517 44.7718 6.30939 45.8858 6.30939H47.0846L47.3752 6.92693C47.7506 7.75033 48.4529 8.44053 49.2521 8.8159L49.906 9.10651V11.7704V14.4344L50.2087 14.725C50.3903 14.9187 50.6446 15.0277 50.8747 15.0277C51.1047 15.0277 51.359 14.9187 51.5407 14.725L51.8434 14.4344V11.1771C51.8434 7.37496 51.8676 7.44761 50.7536 7.26598C49.6759 7.09646 49.1189 6.53945 48.9494 5.46177C48.7798 4.43252 48.6588 4.37198 46.4913 4.37198C44.7355 4.37198 44.675 4.38409 44.3965 4.6747Z" fill="#C68457"/>
<path d="M8.55467 26.9548C8.36093 27.1365 8.25195 27.3908 8.25195 27.6208C8.25195 27.8509 8.36093 28.1052 8.55467 28.2868L8.84528 28.5895H31.0165H53.1876L53.4783 28.8923C53.7447 29.1465 53.781 29.2918 53.781 30.0426C53.781 30.7933 53.8173 30.9386 54.0837 31.1929C54.4712 31.5925 55.0282 31.5925 55.4157 31.1929C55.6821 30.9386 55.7184 30.7933 55.7184 30.0305C55.7184 29.5582 55.6578 28.9407 55.5731 28.6622C55.3793 27.9962 54.3743 26.9912 53.7083 26.7974C53.3208 26.6885 48.0898 26.6521 31.0286 26.6521H8.84528L8.55467 26.9548Z" fill="#C68457"/>
<path d="M54.0846 53.1098C53.8182 53.3641 53.7819 53.5094 53.7819 54.2602C53.7819 55.0109 53.7455 55.1562 53.4791 55.4105L53.1885 55.7132H31.0173H8.84616L8.55555 56.0159C8.15596 56.4034 8.15596 56.9604 8.55555 57.3479L8.84616 57.6506H31.0295C48.0907 57.6506 53.3217 57.6143 53.7092 57.5053C54.3752 57.3116 55.3802 56.3066 55.574 55.6406C55.6587 55.3621 55.7193 54.7445 55.7193 54.2723C55.7193 53.5094 55.6829 53.3641 55.4165 53.1098C55.2349 52.9161 54.9806 52.8071 54.7506 52.8071C54.5205 52.8071 54.2662 52.9161 54.0846 53.1098Z" fill="#C68457"/>
<path d="M47.0001 39.4027C46.4068 39.5964 45.3896 40.6378 45.208 41.2553C44.8689 42.3936 45.1111 43.3017 45.9708 44.1493C47.2059 45.3965 48.9133 45.3723 50.0636 44.0888C51.1534 42.8779 51.1534 41.4249 50.0636 40.214C49.2765 39.3422 48.1504 39.0394 47.0001 39.4027ZM48.6348 41.4854C49.2402 42.0787 48.8164 43.1201 47.9688 43.1201C47.4723 43.1201 47.0001 42.6479 47.0001 42.1514C47.0001 41.6549 47.4723 41.1827 47.9688 41.1827C48.1989 41.1827 48.4531 41.2917 48.6348 41.4854Z" fill="#C68457"/>
</svg>
