<svg width="25" height="25" viewBox="0 0 25 25" fill="none" xmlns="http://www.w3.org/2000/svg">
<path d="M10.816 2.26381C10.9617 2.02924 10.8897 1.72096 10.6551 1.57526C10.4205 1.42956 10.1123 1.50161 9.96657 1.73619L10.816 2.26381ZM16.0451 1.75603C15.9104 1.51499 15.6058 1.42882 15.3647 1.56356C15.1237 1.6983 15.0375 2.00293 15.1723 2.24397L16.0451 1.75603ZM24.2589 12.9568L23.7787 12.8176L24.2589 12.9568ZM3.75335 21.4822L3.2681 21.6028L3.75335 21.4822ZM5.69434 23.5H19.8452V22.5H5.69434V23.5ZM22.2464 21.696L24.7391 13.096L23.7787 12.8176L21.2859 21.4176L22.2464 21.696ZM1.13146 13.0028L3.2681 21.6028L4.2386 21.3617L2.10195 12.7617L1.13146 13.0028ZM5.17391 9.9H3.5577V10.9H5.17391V9.9ZM5.59865 10.6638L10.816 2.26381L9.96657 1.73619L4.74917 10.1362L5.59865 10.6638ZM22.338 9.9H20.3043V10.9H22.338V9.9ZM20.3043 9.9H5.17391V10.9H20.3043V9.9ZM20.7408 10.156L16.0451 1.75603L15.1723 2.24397L19.8679 10.644L20.7408 10.156ZM2.10195 12.7617C1.86687 11.8155 2.58274 10.9 3.5577 10.9V9.9C1.93278 9.9 0.73966 11.4258 1.13146 13.0028L2.10195 12.7617ZM24.7391 13.096C25.2026 11.4969 24.0029 9.9 22.338 9.9V10.9C23.3369 10.9 24.0568 11.8581 23.7787 12.8176L24.7391 13.096ZM19.8452 23.5C20.9579 23.5 21.9366 22.7647 22.2464 21.696L21.2859 21.4176C21.1001 22.0588 20.5128 22.5 19.8452 22.5V23.5ZM5.69434 22.5C5.00522 22.5 4.40476 22.0305 4.2386 21.3617L3.2681 21.6028C3.54503 22.7174 4.54581 23.5 5.69434 23.5V22.5Z" fill="white"/>
<path d="M8.18945 14.6875V19.0625M18.0332 14.6875V19.0625" stroke="white" stroke-linecap="round"/>
</svg>
