<svg width="25" height="25" viewBox="0 0 25 25" fill="none" xmlns="http://www.w3.org/2000/svg">
<mask id="path-1-inside-1_657_4143" fill="white">
<path fill-rule="evenodd" clip-rule="evenodd" d="M12.5 22.8912C18.8513 22.8912 24 17.7669 24 11.4456C24 5.12438 18.8513 0 12.5 0C6.14873 0 1 5.12438 1 11.4456C1 13.5813 1.58769 15.5803 2.61089 17.2912L1.42633 25L8.5991 22.216C9.81713 22.653 11.1306 22.8912 12.5 22.8912Z"/>
</mask>
<path d="M2.61089 17.2912L3.59929 17.4431L3.65399 17.0871L3.46913 16.778L2.61089 17.2912ZM1.42633 25L0.437934 24.8481L0.175139 26.5583L1.78817 25.9322L1.42633 25ZM8.5991 22.216L8.93684 21.2747L8.58537 21.1486L8.23726 21.2837L8.5991 22.216ZM23 11.4456C23 17.2101 18.3035 21.8912 12.5 21.8912V23.8912C19.3991 23.8912 25 18.3236 25 11.4456H23ZM12.5 1C18.3035 1 23 5.68113 23 11.4456H25C25 4.56763 19.3991 -1 12.5 -1V1ZM2 11.4456C2 5.68113 6.69654 1 12.5 1V-1C5.60091 -1 0 4.56763 0 11.4456H2ZM3.46913 16.778C2.536 15.2176 2 13.3953 2 11.4456H0C0 13.7672 0.639374 15.9429 1.75265 17.8045L3.46913 16.778ZM2.41473 25.1518L3.59929 17.4431L1.62249 17.1393L0.437934 24.8481L2.41473 25.1518ZM8.23726 21.2837L1.0645 24.0677L1.78817 25.9322L8.96093 23.1482L8.23726 21.2837ZM12.5 21.8912C11.2473 21.8912 10.048 21.6734 8.93684 21.2747L8.26135 23.1572C9.58625 23.6326 11.0139 23.8912 12.5 23.8912V21.8912Z" fill="white" mask="url(#path-1-inside-1_657_4143)"/>
<path d="M11.5724 12.4236C12.2466 13.1221 13.0625 13.6614 13.9626 14.0035L15.1803 13.014C15.2164 12.9886 15.2592 12.9751 15.3031 12.9751C15.3469 12.9751 15.3897 12.9886 15.4258 13.014L17.6869 14.5016C17.7727 14.5543 17.8454 14.6267 17.8991 14.713C17.9529 14.7993 17.9862 14.8971 17.9965 14.9989C18.0069 15.1006 17.9939 15.2034 17.9587 15.2991C17.9234 15.3949 17.8669 15.4809 17.7934 15.5505L16.734 16.6192C16.5823 16.7722 16.3958 16.8846 16.1912 16.9462C15.9866 17.0077 15.7703 17.0167 15.5615 16.9721C13.4788 16.5328 11.5592 15.5041 10.022 14.0035C8.51885 12.488 7.47871 10.5597 7.02771 8.4524C6.98316 8.2425 6.99245 8.02441 7.0547 7.81927C7.11695 7.61412 7.23004 7.42887 7.38301 7.28148L8.48123 6.19961C8.54919 6.1283 8.63207 6.07361 8.72366 6.03964C8.81525 6.00566 8.91318 5.99329 9.01012 6.00344C9.10706 6.0136 9.20049 6.04601 9.28342 6.09826C9.36635 6.15051 9.43663 6.22124 9.489 6.30516L10.9942 8.58433C11.0202 8.62012 11.0342 8.66348 11.0342 8.70802C11.0342 8.75256 11.0202 8.79592 10.9942 8.83171L10.0026 10.0488C10.3468 10.9496 10.883 11.7608 11.5724 12.4236V12.4236Z" fill="white"/>
</svg>
