<svg width="23" height="25" viewBox="0 0 23 25" fill="none" xmlns="http://www.w3.org/2000/svg">
<mask id="path-1-inside-1_453_5348" fill="white">
<path fill-rule="evenodd" clip-rule="evenodd" d="M11.5 23C17.8513 23 23 17.8513 23 11.5C23 5.14873 17.8513 0 11.5 0C5.14873 0 0 5.14873 0 11.5C0 13.2635 0.396934 14.9342 1.10633 16.4278C1.19405 16.6125 1.22989 16.8182 1.20181 17.0207L0.254682 23.8512C0.13915 24.6844 1.04132 25.2793 1.76163 24.8449L6.16118 22.1917C6.44713 22.0192 6.7991 22.0038 7.10768 22.1314C8.46099 22.6911 9.94443 23 11.5 23Z"/>
</mask>
<path d="M7.10768 22.1314L7.48988 21.2073L7.10768 22.1314ZM0.254682 23.8512L-0.735841 23.7139L0.254682 23.8512ZM1.10633 16.4278L2.00962 15.9988L1.10633 16.4278ZM22 11.5C22 17.299 17.299 22 11.5 22V24C18.4036 24 24 18.4036 24 11.5H22ZM11.5 1C17.299 1 22 5.70101 22 11.5H24C24 4.59644 18.4036 -1 11.5 -1V1ZM1 11.5C1 5.70101 5.70101 1 11.5 1V-1C4.59644 -1 -1 4.59644 -1 11.5H1ZM2.00962 15.9988C1.36255 14.6364 1 13.112 1 11.5H-1C-1 13.415 -0.568685 15.232 0.20304 16.8569L2.00962 15.9988ZM1.24521 23.9886L2.19233 17.1581L0.211285 16.8834L-0.735841 23.7139L1.24521 23.9886ZM5.64475 21.3354L1.2452 23.9886L2.27806 25.7013L6.67761 23.048L5.64475 21.3354ZM11.5 22C10.0779 22 8.72413 21.7178 7.48988 21.2073L6.72547 23.0555C8.19786 23.6645 9.811 24 11.5 24V22ZM6.67761 23.048C6.6752 23.0495 6.67618 23.0478 6.68417 23.0473C6.69305 23.0468 6.70782 23.0482 6.72547 23.0555L7.48988 21.2073C6.91184 20.9682 6.22389 20.9861 5.64475 21.3354L6.67761 23.048ZM-0.735841 23.7139C-0.966904 25.3803 0.837428 26.5701 2.27806 25.7013L1.2452 23.9886H1.24521L-0.735841 23.7139ZM0.20304 16.8569C0.213221 16.8783 0.210659 16.8879 0.211285 16.8834L2.19233 17.1581C2.24912 16.7485 2.17487 16.3467 2.00962 15.9988L0.20304 16.8569Z" fill="#C68457" mask="url(#path-1-inside-1_453_5348)"/>
</svg>
